<svg xmlns="http://www.w3.org/2000/svg" xmlns:xlink="http://www.w3.org/1999/xlink" width="40" zoomAndPan="magnify" viewBox="0 0 30 30.000001" height="40" preserveAspectRatio="xMidYMid meet" version="1.0"><defs><clipPath id="2705bc6baf"><path d="M 6.074219 0 L 24.222656 0 L 24.222656 29.03125 L 6.074219 29.03125 Z M 6.074219 0 " clip-rule="nonzero"/></clipPath><clipPath id="feb59f8797"><path d="M 7.910156 2.167969 L 22.425781 2.167969 L 22.425781 16.683594 L 7.910156 16.683594 Z M 7.910156 2.167969 " clip-rule="nonzero"/></clipPath><clipPath id="84088c02c1"><path d="M 9.519531 4 L 20 4 L 20 14.445312 L 9.519531 14.445312 Z M 9.519531 4 " clip-rule="nonzero"/></clipPath><clipPath id="9979cdc740"><path d="M 16 3.554688 L 20.40625 3.554688 L 20.40625 7 L 16 7 Z M 16 3.554688 " clip-rule="nonzero"/></clipPath></defs><g clip-path="url(#2705bc6baf)"><path fill="#f0ab00" d="M 15.179688 29.027344 C 14.507812 25.792969 13.328125 23.101562 11.898438 20.609375 C 10.835938 18.757812 9.605469 17.050781 8.46875 15.257812 C 8.089844 14.65625 7.761719 14.023438 7.398438 13.402344 C 6.667969 12.160156 6.074219 10.71875 6.113281 8.851562 C 6.148438 7.023438 6.6875 5.558594 7.460938 4.363281 C 8.734375 2.394531 10.871094 0.777344 13.734375 0.351562 C 16.074219 0.0078125 18.269531 0.59375 19.828125 1.488281 C 21.097656 2.21875 22.082031 3.195312 22.832031 4.347656 C 23.613281 5.546875 24.152344 6.96875 24.195312 8.820312 C 24.21875 9.769531 24.0625 10.644531 23.839844 11.375 C 23.613281 12.113281 23.253906 12.730469 22.929688 13.386719 C 22.300781 14.671875 21.511719 15.851562 20.71875 17.03125 C 18.363281 20.539062 16.148438 24.121094 15.179688 29.027344 Z M 15.179688 29.027344 " fill-opacity="1" fill-rule="evenodd"/></g><path fill="#ffffff" d="M 18.324219 8.832031 C 18.324219 9.242188 18.242188 9.640625 18.082031 10.023438 C 17.921875 10.40625 17.691406 10.742188 17.394531 11.035156 C 17.097656 11.324219 16.757812 11.550781 16.367188 11.707031 C 15.980469 11.867188 15.574219 11.945312 15.15625 11.945312 C 14.734375 11.945312 14.332031 11.867188 13.941406 11.707031 C 13.554688 11.550781 13.210938 11.324219 12.914062 11.035156 C 12.617188 10.742188 12.390625 10.40625 12.226562 10.023438 C 12.066406 9.640625 11.988281 9.242188 11.988281 8.832031 C 11.988281 8.417969 12.066406 8.019531 12.226562 7.640625 C 12.390625 7.257812 12.617188 6.921875 12.914062 6.628906 C 13.210938 6.335938 13.554688 6.109375 13.941406 5.953125 C 14.332031 5.796875 14.734375 5.714844 15.15625 5.714844 C 15.574219 5.714844 15.980469 5.796875 16.367188 5.953125 C 16.757812 6.109375 17.097656 6.335938 17.394531 6.628906 C 17.691406 6.921875 17.921875 7.257812 18.082031 7.640625 C 18.242188 8.019531 18.324219 8.417969 18.324219 8.832031 Z M 18.324219 8.832031 " fill-opacity="1" fill-rule="nonzero"/><g clip-path="url(#feb59f8797)"><path fill="#ffffff" d="M 22.425781 9.425781 C 22.425781 9.902344 22.378906 10.375 22.285156 10.839844 C 22.191406 11.308594 22.054688 11.761719 21.871094 12.203125 C 21.691406 12.644531 21.464844 13.0625 21.203125 13.457031 C 20.9375 13.855469 20.636719 14.222656 20.296875 14.558594 C 19.960938 14.894531 19.59375 15.195312 19.199219 15.460938 C 18.800781 15.726562 18.382812 15.949219 17.945312 16.132812 C 17.503906 16.3125 17.050781 16.453125 16.582031 16.542969 C 16.113281 16.636719 15.644531 16.683594 15.167969 16.683594 C 14.691406 16.683594 14.21875 16.636719 13.75 16.542969 C 13.28125 16.453125 12.828125 16.3125 12.390625 16.132812 C 11.949219 15.949219 11.53125 15.726562 11.132812 15.460938 C 10.738281 15.195312 10.371094 14.894531 10.035156 14.558594 C 9.695312 14.222656 9.394531 13.855469 9.132812 13.457031 C 8.867188 13.0625 8.644531 12.644531 8.460938 12.203125 C 8.277344 11.761719 8.140625 11.308594 8.046875 10.839844 C 7.953125 10.375 7.910156 9.902344 7.910156 9.425781 C 7.910156 8.949219 7.953125 8.476562 8.046875 8.007812 C 8.140625 7.542969 8.277344 7.089844 8.460938 6.648438 C 8.644531 6.207031 8.867188 5.789062 9.132812 5.394531 C 9.394531 4.996094 9.695312 4.628906 10.035156 4.292969 C 10.371094 3.957031 10.738281 3.65625 11.132812 3.390625 C 11.53125 3.125 11.949219 2.902344 12.390625 2.71875 C 12.828125 2.539062 13.28125 2.398438 13.75 2.308594 C 14.21875 2.214844 14.691406 2.167969 15.167969 2.167969 C 15.644531 2.167969 16.113281 2.214844 16.582031 2.308594 C 17.050781 2.398438 17.503906 2.539062 17.945312 2.71875 C 18.382812 2.902344 18.800781 3.125 19.199219 3.390625 C 19.59375 3.65625 19.960938 3.957031 20.296875 4.292969 C 20.636719 4.628906 20.9375 4.996094 21.203125 5.394531 C 21.464844 5.789062 21.691406 6.207031 21.871094 6.648438 C 22.054688 7.089844 22.191406 7.542969 22.285156 8.007812 C 22.378906 8.476562 22.425781 8.949219 22.425781 9.425781 Z M 22.425781 9.425781 " fill-opacity="1" fill-rule="nonzero"/></g><path fill="#f0ab00" d="M 14.734375 10.527344 C 14.019531 10.527344 13.4375 9.945312 13.4375 9.230469 C 13.4375 8.636719 13.84375 8.117188 14.417969 7.972656 C 14.546875 7.941406 14.679688 8.019531 14.710938 8.148438 C 14.742188 8.277344 14.664062 8.40625 14.535156 8.441406 C 14.171875 8.53125 13.917969 8.855469 13.917969 9.230469 C 13.917969 9.679688 14.285156 10.046875 14.734375 10.046875 C 15.109375 10.046875 15.433594 9.792969 15.523438 9.429688 C 15.554688 9.300781 15.6875 9.222656 15.816406 9.253906 C 15.945312 9.285156 16.023438 9.414062 15.988281 9.542969 C 15.84375 10.121094 15.328125 10.527344 14.734375 10.527344 " fill-opacity="1" fill-rule="nonzero"/><path fill="#f0ab00" d="M 14.734375 12.484375 C 12.9375 12.484375 11.480469 11.023438 11.480469 9.230469 C 11.480469 7.4375 12.9375 5.976562 14.734375 5.976562 C 15.257812 5.976562 15.777344 6.105469 16.238281 6.34375 C 16.355469 6.40625 16.402344 6.550781 16.339844 6.667969 C 16.277344 6.785156 16.132812 6.832031 16.015625 6.769531 C 15.617188 6.5625 15.1875 6.457031 14.734375 6.457031 C 13.203125 6.457031 11.960938 7.703125 11.960938 9.230469 C 11.960938 10.761719 13.203125 12.003906 14.734375 12.003906 C 16.261719 12.003906 17.507812 10.761719 17.507812 9.230469 C 17.507812 8.777344 17.402344 8.347656 17.195312 7.949219 C 17.132812 7.832031 17.175781 7.6875 17.292969 7.625 C 17.414062 7.5625 17.558594 7.609375 17.617188 7.726562 C 17.859375 8.1875 17.988281 8.707031 17.988281 9.230469 C 17.988281 11.023438 16.527344 12.484375 14.734375 12.484375 " fill-opacity="1" fill-rule="nonzero"/><g clip-path="url(#84088c02c1)"><path fill="#f0ab00" d="M 14.734375 14.445312 C 11.859375 14.445312 9.519531 12.105469 9.519531 9.230469 C 9.519531 6.355469 11.859375 4.019531 14.734375 4.019531 C 15.304688 4.019531 15.863281 4.109375 16.402344 4.292969 C 16.527344 4.332031 16.59375 4.46875 16.550781 4.59375 C 16.507812 4.722656 16.375 4.789062 16.246094 4.746094 C 15.761719 4.582031 15.25 4.496094 14.734375 4.496094 C 12.125 4.496094 10 6.621094 10 9.230469 C 10 11.839844 12.125 13.964844 14.734375 13.964844 C 17.34375 13.964844 19.464844 11.839844 19.464844 9.230469 C 19.464844 8.710938 19.382812 8.203125 19.21875 7.714844 C 19.175781 7.589844 19.242188 7.453125 19.367188 7.414062 C 19.496094 7.371094 19.628906 7.4375 19.671875 7.5625 C 19.855469 8.097656 19.945312 8.660156 19.945312 9.230469 C 19.945312 12.105469 17.609375 14.445312 14.734375 14.445312 " fill-opacity="1" fill-rule="nonzero"/></g><path fill="#f0ab00" d="M 14.734375 9.472656 C 14.671875 9.472656 14.609375 9.449219 14.5625 9.402344 C 14.46875 9.308594 14.46875 9.15625 14.5625 9.0625 L 19.0625 4.5625 C 19.15625 4.46875 19.308594 4.46875 19.402344 4.5625 C 19.496094 4.65625 19.496094 4.808594 19.402344 4.902344 L 14.902344 9.402344 C 14.855469 9.449219 14.792969 9.472656 14.734375 9.472656 " fill-opacity="1" fill-rule="nonzero"/><g clip-path="url(#9979cdc740)"><path fill="#f0ab00" d="M 17.816406 6.144531 L 19.007812 6.460938 L 19.6875 5.777344 L 18.632812 5.5 C 18.550781 5.480469 18.484375 5.414062 18.464844 5.332031 L 18.183594 4.277344 L 17.503906 4.957031 Z M 19.078125 6.96875 C 19.058594 6.96875 19.039062 6.964844 19.019531 6.957031 L 17.5625 6.574219 C 17.476562 6.550781 17.410156 6.488281 17.390625 6.402344 L 17.003906 4.945312 C 16.984375 4.863281 17.007812 4.773438 17.066406 4.714844 L 18.140625 3.640625 C 18.203125 3.582031 18.289062 3.558594 18.375 3.578125 C 18.457031 3.601562 18.519531 3.667969 18.542969 3.75 L 18.890625 5.074219 L 20.214844 5.421875 C 20.296875 5.441406 20.363281 5.507812 20.386719 5.589844 C 20.40625 5.675781 20.382812 5.761719 20.324219 5.824219 L 19.25 6.898438 C 19.203125 6.941406 19.144531 6.96875 19.078125 6.96875 " fill-opacity="1" fill-rule="nonzero"/></g></svg>