<svg xmlns="http://www.w3.org/2000/svg" xmlns:xlink="http://www.w3.org/1999/xlink" width="40" zoomAndPan="magnify" viewBox="0 0 30 30.000001" height="40" preserveAspectRatio="xMidYMid meet" version="1.0"><defs><clipPath id="561813cf0e"><path d="M 0.484375 0 L 29.515625 0 L 29.515625 29.03125 L 0.484375 29.03125 Z M 0.484375 0 " clip-rule="nonzero"/></clipPath><clipPath id="e96639b873"><path d="M 6.074219 0 L 24.222656 0 L 24.222656 29.03125 L 6.074219 29.03125 Z M 6.074219 0 " clip-rule="nonzero"/></clipPath><clipPath id="9755595a21"><path d="M 7.910156 2.167969 L 22.425781 2.167969 L 22.425781 16.683594 L 7.910156 16.683594 Z M 7.910156 2.167969 " clip-rule="nonzero"/></clipPath><clipPath id="5ce2a98b10"><path d="M 10.316406 4.75 L 19.753906 4.75 L 19.753906 13.460938 L 10.316406 13.460938 Z M 10.316406 4.75 " clip-rule="nonzero"/></clipPath><clipPath id="d6f7aa53b4"><path d="M 13 8 L 19.753906 8 L 19.753906 12 L 13 12 Z M 13 8 " clip-rule="nonzero"/></clipPath></defs><g clip-path="url(#561813cf0e)"><path fill="#ffffff" d="M 0.484375 0 L 29.515625 0 L 29.515625 36.289062 L 0.484375 36.289062 Z M 0.484375 0 " fill-opacity="1" fill-rule="nonzero"/><path fill="#ffffff" d="M 0.484375 0 L 29.515625 0 L 29.515625 29.03125 L 0.484375 29.03125 Z M 0.484375 0 " fill-opacity="1" fill-rule="nonzero"/><path fill="#ffffff" d="M 0.484375 0 L 29.515625 0 L 29.515625 29.03125 L 0.484375 29.03125 Z M 0.484375 0 " fill-opacity="1" fill-rule="nonzero"/></g><g clip-path="url(#e96639b873)"><path fill="#f0ab00" d="M 15.179688 29.027344 C 14.507812 25.792969 13.328125 23.101562 11.898438 20.609375 C 10.835938 18.757812 9.605469 17.050781 8.46875 15.257812 C 8.089844 14.65625 7.761719 14.023438 7.398438 13.402344 C 6.667969 12.160156 6.074219 10.71875 6.113281 8.851562 C 6.148438 7.023438 6.6875 5.558594 7.460938 4.363281 C 8.734375 2.394531 10.871094 0.777344 13.734375 0.351562 C 16.074219 0.0078125 18.269531 0.59375 19.828125 1.488281 C 21.097656 2.21875 22.082031 3.195312 22.832031 4.347656 C 23.613281 5.546875 24.152344 6.96875 24.195312 8.820312 C 24.21875 9.769531 24.0625 10.644531 23.839844 11.375 C 23.613281 12.113281 23.253906 12.730469 22.929688 13.386719 C 22.300781 14.671875 21.511719 15.851562 20.71875 17.03125 C 18.363281 20.539062 16.148438 24.121094 15.179688 29.027344 Z M 15.179688 29.027344 " fill-opacity="1" fill-rule="evenodd"/></g><path fill="#ffffff" d="M 18.324219 8.832031 C 18.324219 9.242188 18.242188 9.640625 18.082031 10.023438 C 17.921875 10.40625 17.691406 10.742188 17.394531 11.035156 C 17.097656 11.324219 16.757812 11.550781 16.367188 11.707031 C 15.980469 11.867188 15.574219 11.945312 15.15625 11.945312 C 14.734375 11.945312 14.332031 11.867188 13.941406 11.707031 C 13.554688 11.550781 13.210938 11.324219 12.914062 11.035156 C 12.617188 10.742188 12.390625 10.40625 12.226562 10.023438 C 12.066406 9.640625 11.988281 9.242188 11.988281 8.832031 C 11.988281 8.417969 12.066406 8.019531 12.226562 7.640625 C 12.390625 7.257812 12.617188 6.921875 12.914062 6.628906 C 13.210938 6.335938 13.554688 6.109375 13.941406 5.953125 C 14.332031 5.796875 14.734375 5.714844 15.15625 5.714844 C 15.574219 5.714844 15.980469 5.796875 16.367188 5.953125 C 16.757812 6.109375 17.097656 6.335938 17.394531 6.628906 C 17.691406 6.921875 17.921875 7.257812 18.082031 7.640625 C 18.242188 8.019531 18.324219 8.417969 18.324219 8.832031 Z M 18.324219 8.832031 " fill-opacity="1" fill-rule="nonzero"/><g clip-path="url(#9755595a21)"><path fill="#ffffff" d="M 22.425781 9.425781 C 22.425781 9.902344 22.378906 10.375 22.285156 10.839844 C 22.191406 11.308594 22.054688 11.761719 21.871094 12.203125 C 21.691406 12.644531 21.464844 13.0625 21.203125 13.457031 C 20.9375 13.855469 20.636719 14.222656 20.296875 14.558594 C 19.960938 14.894531 19.59375 15.195312 19.199219 15.460938 C 18.800781 15.726562 18.382812 15.949219 17.945312 16.132812 C 17.503906 16.3125 17.050781 16.453125 16.582031 16.542969 C 16.113281 16.636719 15.644531 16.683594 15.167969 16.683594 C 14.691406 16.683594 14.21875 16.636719 13.75 16.542969 C 13.28125 16.453125 12.828125 16.3125 12.390625 16.132812 C 11.949219 15.949219 11.53125 15.726562 11.132812 15.460938 C 10.738281 15.195312 10.371094 14.894531 10.035156 14.558594 C 9.695312 14.222656 9.394531 13.855469 9.132812 13.457031 C 8.867188 13.0625 8.644531 12.644531 8.460938 12.203125 C 8.277344 11.761719 8.140625 11.308594 8.046875 10.839844 C 7.953125 10.375 7.910156 9.902344 7.910156 9.425781 C 7.910156 8.949219 7.953125 8.476562 8.046875 8.007812 C 8.140625 7.542969 8.277344 7.089844 8.460938 6.648438 C 8.644531 6.207031 8.867188 5.789062 9.132812 5.394531 C 9.394531 4.996094 9.695312 4.628906 10.035156 4.292969 C 10.371094 3.957031 10.738281 3.65625 11.132812 3.390625 C 11.53125 3.125 11.949219 2.902344 12.390625 2.71875 C 12.828125 2.539062 13.28125 2.398438 13.75 2.308594 C 14.21875 2.214844 14.691406 2.167969 15.167969 2.167969 C 15.644531 2.167969 16.113281 2.214844 16.582031 2.308594 C 17.050781 2.398438 17.503906 2.539062 17.945312 2.71875 C 18.382812 2.902344 18.800781 3.125 19.199219 3.390625 C 19.59375 3.65625 19.960938 3.957031 20.296875 4.292969 C 20.636719 4.628906 20.9375 4.996094 21.203125 5.394531 C 21.464844 5.789062 21.691406 6.207031 21.871094 6.648438 C 22.054688 7.089844 22.191406 7.542969 22.285156 8.007812 C 22.378906 8.476562 22.425781 8.949219 22.425781 9.425781 Z M 22.425781 9.425781 " fill-opacity="1" fill-rule="nonzero"/></g><g clip-path="url(#5ce2a98b10)"><path fill="#f0ab00" d="M 13.535156 8.625 C 13.535156 8.378906 13.625 8.175781 13.796875 8.015625 C 14.171875 7.671875 14.824219 7.6875 14.898438 7.6875 L 19 7.6875 C 18.382812 5.96875 16.851562 4.75 14.785156 4.75 C 12.316406 4.75 10.316406 6.539062 10.316406 8.742188 C 10.316406 9.953125 11.019531 11.234375 11.417969 11.472656 C 12.265625 11.976562 14.097656 12.421875 15.167969 12.691406 C 16.605469 13.058594 17.652344 13.375 18.324219 13.429688 C 18.777344 13.460938 19.453125 13.0625 19.617188 11.878906 L 14.484375 9.949219 C 14.445312 9.929688 13.535156 9.535156 13.535156 8.625 Z M 13.535156 8.625 " fill-opacity="1" fill-rule="nonzero"/></g><g clip-path="url(#d6f7aa53b4)"><path fill="#f0ab00" d="M 19.230469 8.078125 L 14.882812 8.078125 C 14.730469 8.070312 14.292969 8.097656 14.074219 8.296875 C 13.984375 8.382812 13.9375 8.488281 13.9375 8.625 C 13.9375 9.265625 14.582031 9.566406 14.644531 9.59375 L 19.75 11.542969 C 19.746094 10.847656 19.289062 8.292969 19.230469 8.078125 Z M 15.640625 9.667969 L 17.007812 8.359375 L 18.359375 8.359375 L 16.605469 10.039062 Z M 17.5625 10.402344 L 17.078125 10.21875 L 18.996094 8.378906 C 19.023438 8.519531 19.054688 8.710938 19.09375 8.933594 Z M 17.5625 10.402344 " fill-opacity="1" fill-rule="nonzero"/></g></svg>