<svg xmlns="http://www.w3.org/2000/svg" xmlns:xlink="http://www.w3.org/1999/xlink" width="40" zoomAndPan="magnify" viewBox="0 0 30 30.000001" height="40" preserveAspectRatio="xMidYMid meet" version="1.0"><defs><clipPath id="e02127c81e"><path d="M 6.074219 0 L 24.222656 0 L 24.222656 29.03125 L 6.074219 29.03125 Z M 6.074219 0 " clip-rule="nonzero"/></clipPath><clipPath id="86d2aaf971"><path d="M 7.910156 2.167969 L 22.425781 2.167969 L 22.425781 16.683594 L 7.910156 16.683594 Z M 7.910156 2.167969 " clip-rule="nonzero"/></clipPath><clipPath id="e7b5b8487d"><path d="M 9.277344 4.371094 L 20.890625 4.371094 L 20.890625 14.53125 L 9.277344 14.53125 Z M 9.277344 4.371094 " clip-rule="nonzero"/></clipPath><clipPath id="e48c7874a6"><path d="M 11.925781 14.0625 L 14.828125 14.0625 L 14.828125 16.964844 L 11.925781 16.964844 Z M 11.925781 14.0625 " clip-rule="nonzero"/></clipPath><clipPath id="6911cf9c19"><path d="M 14.167969 14.0625 L 17.070312 14.0625 L 17.070312 16.964844 L 14.167969 16.964844 Z M 14.167969 14.0625 " clip-rule="nonzero"/></clipPath><clipPath id="b9bcd1ac72"><path d="M 16.460938 14.0625 L 20.089844 14.0625 L 20.089844 17.691406 L 16.460938 17.691406 Z M 16.460938 14.0625 " clip-rule="nonzero"/></clipPath><clipPath id="32bfa88b29"><path d="M 9.820312 14.261719 L 12.722656 14.261719 L 12.722656 17.164062 L 9.820312 17.164062 Z M 9.820312 14.261719 " clip-rule="nonzero"/></clipPath></defs><g clip-path="url(#e02127c81e)"><path fill="#f0ab00" d="M 15.179688 29.027344 C 14.507812 25.792969 13.328125 23.101562 11.898438 20.609375 C 10.835938 18.757812 9.605469 17.050781 8.46875 15.257812 C 8.089844 14.65625 7.761719 14.023438 7.398438 13.402344 C 6.667969 12.160156 6.074219 10.71875 6.113281 8.851562 C 6.148438 7.023438 6.6875 5.558594 7.460938 4.363281 C 8.734375 2.394531 10.871094 0.777344 13.734375 0.351562 C 16.074219 0.0078125 18.269531 0.59375 19.828125 1.488281 C 21.097656 2.21875 22.082031 3.195312 22.832031 4.347656 C 23.613281 5.546875 24.152344 6.96875 24.195312 8.820312 C 24.21875 9.769531 24.0625 10.644531 23.839844 11.375 C 23.613281 12.113281 23.253906 12.730469 22.929688 13.386719 C 22.300781 14.671875 21.511719 15.851562 20.71875 17.03125 C 18.363281 20.539062 16.148438 24.121094 15.179688 29.027344 Z M 15.179688 29.027344 " fill-opacity="1" fill-rule="evenodd"/></g><path fill="#ffffff" d="M 18.324219 8.832031 C 18.324219 9.242188 18.242188 9.640625 18.082031 10.023438 C 17.921875 10.40625 17.691406 10.742188 17.394531 11.035156 C 17.097656 11.324219 16.757812 11.550781 16.367188 11.707031 C 15.980469 11.867188 15.574219 11.945312 15.15625 11.945312 C 14.734375 11.945312 14.332031 11.867188 13.941406 11.707031 C 13.554688 11.550781 13.210938 11.324219 12.914062 11.035156 C 12.617188 10.742188 12.390625 10.40625 12.226562 10.023438 C 12.066406 9.640625 11.988281 9.242188 11.988281 8.832031 C 11.988281 8.417969 12.066406 8.019531 12.226562 7.640625 C 12.390625 7.257812 12.617188 6.921875 12.914062 6.628906 C 13.210938 6.335938 13.554688 6.109375 13.941406 5.953125 C 14.332031 5.796875 14.734375 5.714844 15.15625 5.714844 C 15.574219 5.714844 15.980469 5.796875 16.367188 5.953125 C 16.757812 6.109375 17.097656 6.335938 17.394531 6.628906 C 17.691406 6.921875 17.921875 7.257812 18.082031 7.640625 C 18.242188 8.019531 18.324219 8.417969 18.324219 8.832031 Z M 18.324219 8.832031 " fill-opacity="1" fill-rule="nonzero"/><g clip-path="url(#86d2aaf971)"><path fill="#ffffff" d="M 22.425781 9.425781 C 22.425781 9.902344 22.378906 10.375 22.285156 10.839844 C 22.191406 11.308594 22.054688 11.761719 21.871094 12.203125 C 21.691406 12.644531 21.464844 13.0625 21.203125 13.457031 C 20.9375 13.855469 20.636719 14.222656 20.296875 14.558594 C 19.960938 14.894531 19.59375 15.195312 19.199219 15.460938 C 18.800781 15.726562 18.382812 15.949219 17.945312 16.132812 C 17.503906 16.3125 17.050781 16.453125 16.582031 16.542969 C 16.113281 16.636719 15.644531 16.683594 15.167969 16.683594 C 14.691406 16.683594 14.21875 16.636719 13.75 16.542969 C 13.28125 16.453125 12.828125 16.3125 12.390625 16.132812 C 11.949219 15.949219 11.53125 15.726562 11.132812 15.460938 C 10.738281 15.195312 10.371094 14.894531 10.035156 14.558594 C 9.695312 14.222656 9.394531 13.855469 9.132812 13.457031 C 8.867188 13.0625 8.644531 12.644531 8.460938 12.203125 C 8.277344 11.761719 8.140625 11.308594 8.046875 10.839844 C 7.953125 10.375 7.910156 9.902344 7.910156 9.425781 C 7.910156 8.949219 7.953125 8.476562 8.046875 8.007812 C 8.140625 7.542969 8.277344 7.089844 8.460938 6.648438 C 8.644531 6.207031 8.867188 5.789062 9.132812 5.394531 C 9.394531 4.996094 9.695312 4.628906 10.035156 4.292969 C 10.371094 3.957031 10.738281 3.65625 11.132812 3.390625 C 11.53125 3.125 11.949219 2.902344 12.390625 2.71875 C 12.828125 2.539062 13.28125 2.398438 13.75 2.308594 C 14.21875 2.214844 14.691406 2.167969 15.167969 2.167969 C 15.644531 2.167969 16.113281 2.214844 16.582031 2.308594 C 17.050781 2.398438 17.503906 2.539062 17.945312 2.71875 C 18.382812 2.902344 18.800781 3.125 19.199219 3.390625 C 19.59375 3.65625 19.960938 3.957031 20.296875 4.292969 C 20.636719 4.628906 20.9375 4.996094 21.203125 5.394531 C 21.464844 5.789062 21.691406 6.207031 21.871094 6.648438 C 22.054688 7.089844 22.191406 7.542969 22.285156 8.007812 C 22.378906 8.476562 22.425781 8.949219 22.425781 9.425781 Z M 22.425781 9.425781 " fill-opacity="1" fill-rule="nonzero"/></g><g clip-path="url(#e7b5b8487d)"><path fill="#f0ab00" d="M 15.285156 11.394531 L 15.285156 12.003906 L 15.808594 12.191406 L 15.808594 11.582031 Z M 15.285156 10.203125 L 15.285156 10.8125 L 15.808594 11.003906 L 15.808594 10.394531 Z M 17.902344 9.496094 L 16.75 10.234375 L 16.75 13.28125 C 17.140625 13.324219 17.527344 13.382812 17.902344 13.457031 Z M 15.285156 9.015625 L 15.285156 9.625 L 15.808594 9.8125 L 15.808594 9.207031 Z M 12.023438 8.84375 L 10.875 9.582031 L 10.875 13.808594 C 11.242188 13.691406 11.625 13.589844 12.023438 13.503906 Z M 16.328125 8.203125 L 16.328125 8.8125 L 16.851562 9.003906 L 16.851562 8.394531 Z M 15.285156 7.828125 L 15.285156 8.4375 L 15.808594 8.625 L 15.808594 8.015625 Z M 16.328125 7.015625 L 16.328125 7.625 L 16.851562 7.8125 L 16.851562 7.203125 Z M 15.285156 6.636719 L 15.285156 7.246094 L 15.808594 7.4375 L 15.808594 6.828125 Z M 16.328125 5.824219 L 16.328125 6.433594 L 16.851562 6.625 L 16.851562 6.015625 Z M 15.285156 5.449219 L 15.285156 6.058594 L 15.808594 6.246094 L 15.808594 5.636719 Z M 14.59375 4.863281 L 13.441406 5.601562 L 13.441406 13.277344 C 13.820312 13.238281 14.207031 13.210938 14.59375 13.199219 Z M 14.832031 4.425781 L 17.296875 5.316406 L 17.296875 9.082031 L 16.15625 9.816406 L 16.15625 13.230469 C 16.273438 13.238281 16.390625 13.246094 16.507812 13.253906 L 16.507812 10.105469 L 18.140625 9.058594 L 19.53125 9.949219 L 19.53125 13.886719 C 20.019531 14.050781 20.476562 14.246094 20.886719 14.460938 L 9.277344 14.460938 C 9.6875 14.246094 10.144531 14.054688 10.632812 13.890625 L 10.632812 9.453125 L 12.265625 8.40625 L 13.199219 9.007812 L 13.199219 5.472656 Z M 14.832031 4.425781 " fill-opacity="1" fill-rule="evenodd"/></g><g clip-path="url(#e48c7874a6)"><path fill="#f0ab00" d="M 15.390625 16.738281 C 15.167969 16.996094 14.90625 17.203125 14.601562 17.355469 C 14.296875 17.511719 13.972656 17.601562 13.632812 17.625 C 13.292969 17.652344 12.960938 17.613281 12.636719 17.507812 C 12.3125 17.398438 12.019531 17.234375 11.761719 17.015625 C 11.503906 16.792969 11.296875 16.527344 11.140625 16.222656 C 10.988281 15.917969 10.898438 15.597656 10.871094 15.257812 C 10.84375 14.917969 10.886719 14.582031 10.992188 14.257812 C 11.097656 13.933594 11.261719 13.644531 11.484375 13.382812 C 11.707031 13.125 11.96875 12.917969 12.273438 12.765625 C 12.578125 12.609375 12.902344 12.519531 13.242188 12.492188 C 13.582031 12.46875 13.914062 12.507812 14.238281 12.613281 C 14.5625 12.71875 14.855469 12.882812 15.113281 13.105469 C 15.371094 13.328125 15.578125 13.59375 15.734375 13.898438 C 15.886719 14.203125 15.976562 14.523438 16.003906 14.863281 C 16.03125 15.203125 15.988281 15.535156 15.882812 15.859375 C 15.777344 16.1875 15.613281 16.476562 15.390625 16.738281 Z M 15.390625 16.738281 " fill-opacity="1" fill-rule="nonzero"/></g><g clip-path="url(#6911cf9c19)"><path fill="#f0ab00" d="M 17.632812 16.738281 C 17.410156 16.996094 17.148438 17.203125 16.84375 17.355469 C 16.539062 17.511719 16.214844 17.601562 15.875 17.625 C 15.535156 17.652344 15.203125 17.613281 14.878906 17.507812 C 14.554688 17.398438 14.261719 17.234375 14.003906 17.015625 C 13.742188 16.792969 13.539062 16.527344 13.382812 16.222656 C 13.230469 15.917969 13.136719 15.597656 13.113281 15.257812 C 13.085938 14.917969 13.125 14.582031 13.234375 14.257812 C 13.339844 13.933594 13.503906 13.644531 13.726562 13.382812 C 13.949219 13.125 14.210938 12.917969 14.515625 12.765625 C 14.820312 12.609375 15.140625 12.519531 15.484375 12.492188 C 15.824219 12.46875 16.15625 12.507812 16.480469 12.613281 C 16.804688 12.71875 17.097656 12.882812 17.355469 13.105469 C 17.613281 13.328125 17.820312 13.59375 17.976562 13.898438 C 18.128906 14.203125 18.21875 14.523438 18.246094 14.863281 C 18.273438 15.203125 18.230469 15.535156 18.125 15.859375 C 18.019531 16.1875 17.855469 16.476562 17.632812 16.738281 Z M 17.632812 16.738281 " fill-opacity="1" fill-rule="nonzero"/></g><g clip-path="url(#b9bcd1ac72)"><path fill="#f0ab00" d="M 20.714844 17.390625 C 20.449219 17.699219 20.132812 17.949219 19.765625 18.132812 C 19.402344 18.316406 19.015625 18.425781 18.605469 18.457031 C 18.199219 18.488281 17.800781 18.441406 17.410156 18.3125 C 17.019531 18.183594 16.671875 17.988281 16.359375 17.722656 C 16.050781 17.453125 15.800781 17.140625 15.617188 16.773438 C 15.429688 16.40625 15.324219 16.019531 15.292969 15.613281 C 15.261719 15.203125 15.308594 14.804688 15.4375 14.417969 C 15.5625 14.027344 15.761719 13.675781 16.027344 13.367188 C 16.292969 13.054688 16.609375 12.808594 16.976562 12.621094 C 17.339844 12.4375 17.726562 12.328125 18.136719 12.296875 C 18.542969 12.265625 18.941406 12.3125 19.332031 12.441406 C 19.722656 12.570312 20.070312 12.765625 20.382812 13.03125 C 20.695312 13.300781 20.941406 13.617188 21.125 13.980469 C 21.3125 14.347656 21.421875 14.734375 21.453125 15.140625 C 21.484375 15.550781 21.433594 15.949219 21.308594 16.339844 C 21.179688 16.726562 20.980469 17.078125 20.714844 17.390625 Z M 20.714844 17.390625 " fill-opacity="1" fill-rule="nonzero"/></g><g clip-path="url(#32bfa88b29)"><path fill="#f0ab00" d="M 13 16.742188 C 12.796875 16.976562 12.5625 17.160156 12.285156 17.300781 C 12.011719 17.4375 11.722656 17.519531 11.417969 17.542969 C 11.109375 17.566406 10.8125 17.53125 10.519531 17.433594 C 10.226562 17.339844 9.964844 17.191406 9.730469 16.992188 C 9.5 16.792969 9.3125 16.554688 9.171875 16.28125 C 9.035156 16.007812 8.953125 15.714844 8.929688 15.410156 C 8.90625 15.101562 8.941406 14.804688 9.039062 14.511719 C 9.132812 14.21875 9.28125 13.957031 9.480469 13.722656 C 9.683594 13.492188 9.917969 13.304688 10.191406 13.167969 C 10.46875 13.027344 10.757812 12.945312 11.0625 12.921875 C 11.371094 12.898438 11.667969 12.9375 11.960938 13.03125 C 12.253906 13.128906 12.515625 13.273438 12.75 13.476562 C 12.980469 13.675781 13.167969 13.910156 13.304688 14.1875 C 13.445312 14.460938 13.527344 14.75 13.550781 15.054688 C 13.574219 15.363281 13.539062 15.660156 13.441406 15.953125 C 13.347656 16.246094 13.199219 16.507812 13 16.742188 Z M 13 16.742188 " fill-opacity="1" fill-rule="nonzero"/></g></svg>